<?xml version="1.0" encoding="UTF-8"?>
<svg id="Layer_2" data-name="Layer 2" xmlns="http://www.w3.org/2000/svg" viewBox="0 0 518.06 558.62">
  <defs>
    <style>
      .cls-1 {
        fill: #252525;
      }
    </style>
  </defs>
  <g id="Layer_1-2" data-name="Layer 1">
    <g>
      <path class="cls-1" d="M512.88,424.7c-.1,.7-.3,1.4-.4,2.1,.1-.7,.3-1.4,.4-2.1h0Zm-16.5,9.3c-4,2.1-8.1,4.2-12.2,6,4.1-1.9,8.1-3.9,12.2-6Zm-192.8,19.7c-20-4.2-39.9-6-60.4-1.7-17.4,3.7-35.2,6.3-52.9,7.7-27,2.2-53.9-.1-80.5-4.8-33-5.9-65.3-14.2-95.6-29.2-1.3-.6-2.7-1.2-4.7-2.2v.1c2,.9,3.3,1.5,4.6,2.1,30.2,15,62.5,23.3,95.6,29.2,26.6,4.8,53.5,7,80.5,4.8,17.7-1.4,35.5-4,52.9-7.7,20.5-4.2,40.4-2.5,60.5,1.7,29.2,6.3,58.8,9.9,88.9,8.3,32.3-1.7,62.9-8.8,91.7-22-28.7,13.2-59.4,20.2-91.6,21.9-30.1,1.7-59.7-2-89-8.2ZM46.98,293.8c5.8,2,11.6,4,17.4,5.9-5.8-1.9-11.6-3.9-17.4-5.9Zm-36.1-13.3h0c.1,.1,.2,.1,.3,.2-.1-.1-.2-.1-.3-.2Z"/>
      <g id="aMcHK1-2">
        <g>
          <path class="cls-1" d="M484.18,440c4.1-1.9,8.2-3.9,12.2-6-4.1,2.1-8.1,4.1-12.2,6Zm-180.6,13.7c-20-4.2-39.9-6-60.4-1.7-17.4,3.7-35.2,6.3-52.9,7.7-27,2.2-53.9-.1-80.5-4.8-33-5.9-65.3-14.2-95.6-29.2-1.3-.6-2.7-1.2-4.7-2.2v.1c2,.9,3.3,1.5,4.6,2.1,30.2,15,62.5,23.3,95.6,29.2,26.6,4.8,53.5,7,80.5,4.8,17.7-1.4,35.5-4,52.9-7.7,20.5-4.2,40.4-2.5,60.5,1.7,29.2,6.3,58.8,9.9,88.9,8.3,32.3-1.7,62.9-8.8,91.7-22-28.7,13.2-59.4,20.2-91.6,21.9-30.1,1.7-59.7-2-89-8.2Z"/>
          <path class="cls-1" d="M378.08,530.83h0c-6.91,8.12-16.37,12.37-25.95,15.76-48.75,17.1-97.25,16.01-145.15-3.52-2.43-.97-4.37-3.27-6.55-4.97,2.91-1.7,5.58-4.73,8.61-4.97,8-.73,16.13-.24,24.13-.24,41.96,.12,82.58-6.43,121.62-22.31,4.37-1.82,9.46-2.43,14.31-2.67,5.7-.12,10.19,2.67,12.37,8.37,2.06,5.34,.24,10.19-3.4,14.55Z"/>
          <path class="cls-1" d="M509.08,283.8h0c-7.5-21.4-17-41.2-31.1-58.5-32.1-39.4-73.5-56.2-124-50.3-22,2.6-42.7,9.4-63,17.8-4.3,1.8-8.9,3.1-14.2,4.9,3-9.6,5.3-18.1,8.2-26.3,5.7-16,10.5-32.7,21.6-46,8.3-9.9,18.1-18.5,27.5-27.4,4.7-4.5,6.4-7.8,4.9-12.6-3.5-10.7-15.7-15.1-24.8-8.6-4.3,3.1-8.3,6.8-11.9,10.7-19.2,20.7-30.3,45.9-39,72.2-4.1,12.4-7.5,25.1-11.5,38.4-5.3-1.2-10.7-2.1-15.9-3.7-16.6-5.1-32.9-11.2-49.7-15.5-32.4-8.4-64.5-7-95.2,7.2-41.1,19-64.8,53-79.9,94.4h0c.1,.1,.2,.1,.3,.2-.1-.1-.2-.1-.3-.2-.2,.7-23.8,66.4-1.5,143.1h.1v-.1c2.1,.9,3.4,1.5,4.7,2.2,30.2,15,62.5,23.3,95.6,29.2,26.7,4.8,53.6,7,80.5,4.8,17.7-1.4,35.5-4,52.9-7.7,20.4-4.3,40.4-2.6,60.4,1.7,29.4,6.2,58.9,9.9,89,8.3,32.2-1.7,62.9-8.7,91.6-21.9h0c4.1-1.9,8.2-3.9,12.2-6,4.6-2.4,9.1-5,13.5-7.8h0s.1,0,.1-.1c0,0,.1-.1,.2-.1,.6-.4,1.4-.7,2.8-1.3,7.6-39.4,6.4-90-4.1-141Zm-462.1,10c5.8,2,11.6,4,17.4,5.9-5.8-1.9-11.6-3.9-17.4-5.9Zm161.7,115c-15.9,10.5-32.7,17.7-52.3,17.2-30.2-.8-54.9-18-64.1-45.1-3.1-9.2-4.7-23-3.4-32h0c15.5,5.8,30.7,11.4,45.9,17.1,4.9,1.8,9.7,3.7,14.6,5.4,2.7,.9,3.6,2.4,3.6,5.3,0,6,.2,12,1.2,17.9,1.5,9.5,7.2,15.1,16.1,16.5,9.3,1.4,18.5-2.9,22.5-11,1.5-3,2.5-6.3,3.9-10,7.6,3.1,15.1,6.3,23.9,9.9-4.5,3.4-8.1,6.3-11.9,8.8Zm168.6,16.3c-25.7,3.6-47-5.8-67-20.4-.9-.7-1.8-1.4-2.7-2.1-.9-.7-1.8-1.3-3.5-2.7,9.1-3.6,17.5-7,26.3-10.5,1.1,3.1,1.9,5.9,3,8.5,4.1,9.3,12,13.7,22.4,12.6,8.9-1,14.7-6.4,16.5-16.5,1-5.5,1.2-11.2,1.3-16.9,.1-2.6,.5-4.2,3.2-5.1,19.2-7.1,38.3-14.3,57.4-21.4,.6-.2,1.2-.3,2.2-.6,3.2,39.7-18.5,69.4-59.1,75.1Z"/>
          <path class="cls-1" d="M10.88,280.5c.1,.1,.2,.1,.3,.2-.1-.1-.2-.1-.3-.2h0Z"/>
          <path class="cls-1" d="M75.98,0c45.2,3.8,87.6,12.7,121.6,44.6,24.4,22.9,38,51.4,43.1,84.1,1,6.6,1.4,13.2,2.1,19.8,.1,.9-.1,1.9-.2,3.3-40.1-.4-76.5-11.3-107.6-36.5C98.58,85.9,81.18,46.4,75.98,0h0Z"/>
        </g>
      </g>
    </g>
  </g>
</svg>